<mxfile host="app.diagrams.net" modified="2024-01-19T09:37:24.272Z" agent="Mozilla/5.0 (Windows NT 10.0; Win64; x64) AppleWebKit/537.36 (KHTML, like Gecko) Chrome/120.0.0.0 Safari/537.36" etag="lAX91e6PL7riX417iB9w" version="22.1.21" type="device">
  <diagram name="Página-1" id="Eyt3zr0vlbKipZgG4vbO">
    <mxGraphModel dx="1936" dy="1072" grid="1" gridSize="10" guides="1" tooltips="1" connect="1" arrows="1" fold="1" page="1" pageScale="1" pageWidth="827" pageHeight="1169" math="0" shadow="0">
      <root>
        <mxCell id="0" />
        <mxCell id="1" parent="0" />
        <mxCell id="YOGzUElhJAN0wBcCv-QX-6" style="edgeStyle=orthogonalEdgeStyle;rounded=0;orthogonalLoop=1;jettySize=auto;html=1;exitX=0.5;exitY=1;exitDx=0;exitDy=0;entryX=0.5;entryY=0;entryDx=0;entryDy=0;" parent="1" source="YOGzUElhJAN0wBcCv-QX-1" target="YOGzUElhJAN0wBcCv-QX-2" edge="1">
          <mxGeometry relative="1" as="geometry" />
        </mxCell>
        <mxCell id="YOGzUElhJAN0wBcCv-QX-1" value="inicio" style="ellipse;whiteSpace=wrap;html=1;" parent="1" vertex="1">
          <mxGeometry x="230" y="60" width="70" height="40" as="geometry" />
        </mxCell>
        <mxCell id="YOGzUElhJAN0wBcCv-QX-30" style="edgeStyle=orthogonalEdgeStyle;rounded=0;orthogonalLoop=1;jettySize=auto;html=1;exitX=0.5;exitY=1;exitDx=0;exitDy=0;entryX=0.5;entryY=0;entryDx=0;entryDy=0;" parent="1" source="YOGzUElhJAN0wBcCv-QX-2" target="YOGzUElhJAN0wBcCv-QX-28" edge="1">
          <mxGeometry relative="1" as="geometry" />
        </mxCell>
        <mxCell id="YOGzUElhJAN0wBcCv-QX-2" value="a, b, c: string" style="rounded=0;whiteSpace=wrap;html=1;" parent="1" vertex="1">
          <mxGeometry x="220" y="120" width="90" height="30" as="geometry" />
        </mxCell>
        <mxCell id="YOGzUElhJAN0wBcCv-QX-8" style="edgeStyle=orthogonalEdgeStyle;rounded=0;orthogonalLoop=1;jettySize=auto;html=1;exitX=1;exitY=0.75;exitDx=0;exitDy=0;entryX=0.5;entryY=0;entryDx=0;entryDy=0;" parent="1" source="YOGzUElhJAN0wBcCv-QX-4" target="YOGzUElhJAN0wBcCv-QX-5" edge="1">
          <mxGeometry relative="1" as="geometry" />
        </mxCell>
        <mxCell id="YOGzUElhJAN0wBcCv-QX-4" value="c, b, a" style="shape=document;whiteSpace=wrap;html=1;boundedLbl=1;" parent="1" vertex="1">
          <mxGeometry x="225" y="220" width="80" height="40" as="geometry" />
        </mxCell>
        <mxCell id="YOGzUElhJAN0wBcCv-QX-5" value="fin" style="ellipse;whiteSpace=wrap;html=1;" parent="1" vertex="1">
          <mxGeometry x="230" y="290" width="70" height="40" as="geometry" />
        </mxCell>
        <mxCell id="YOGzUElhJAN0wBcCv-QX-9" value="1" style="rounded=0;whiteSpace=wrap;html=1;" parent="1" vertex="1">
          <mxGeometry x="200" y="40" width="30" height="20" as="geometry" />
        </mxCell>
        <mxCell id="YOGzUElhJAN0wBcCv-QX-10" value="2" style="rounded=0;whiteSpace=wrap;html=1;" parent="1" vertex="1">
          <mxGeometry x="480" y="40" width="30" height="20" as="geometry" />
        </mxCell>
        <mxCell id="YOGzUElhJAN0wBcCv-QX-11" value="inicio" style="ellipse;whiteSpace=wrap;html=1;" parent="1" vertex="1">
          <mxGeometry x="500" y="60" width="70" height="40" as="geometry" />
        </mxCell>
        <mxCell id="YOGzUElhJAN0wBcCv-QX-44" style="edgeStyle=orthogonalEdgeStyle;rounded=0;orthogonalLoop=1;jettySize=auto;html=1;exitX=0.5;exitY=1;exitDx=0;exitDy=0;entryX=0.5;entryY=0;entryDx=0;entryDy=0;" parent="1" source="YOGzUElhJAN0wBcCv-QX-12" target="YOGzUElhJAN0wBcCv-QX-43" edge="1">
          <mxGeometry relative="1" as="geometry" />
        </mxCell>
        <mxCell id="YOGzUElhJAN0wBcCv-QX-12" value="a, b, c: int" style="rounded=0;whiteSpace=wrap;html=1;" parent="1" vertex="1">
          <mxGeometry x="490" y="130" width="90" height="30" as="geometry" />
        </mxCell>
        <mxCell id="YOGzUElhJAN0wBcCv-QX-15" style="edgeStyle=orthogonalEdgeStyle;rounded=0;orthogonalLoop=1;jettySize=auto;html=1;exitX=0.5;exitY=1;exitDx=0;exitDy=0;entryX=0.516;entryY=-0.114;entryDx=0;entryDy=0;entryPerimeter=0;" parent="1" source="YOGzUElhJAN0wBcCv-QX-11" target="YOGzUElhJAN0wBcCv-QX-12" edge="1">
          <mxGeometry relative="1" as="geometry" />
        </mxCell>
        <mxCell id="YOGzUElhJAN0wBcCv-QX-29" style="edgeStyle=orthogonalEdgeStyle;rounded=0;orthogonalLoop=1;jettySize=auto;html=1;exitX=0.5;exitY=1;exitDx=0;exitDy=0;entryX=0.5;entryY=0;entryDx=0;entryDy=0;" parent="1" source="YOGzUElhJAN0wBcCv-QX-28" target="YOGzUElhJAN0wBcCv-QX-4" edge="1">
          <mxGeometry relative="1" as="geometry" />
        </mxCell>
        <mxCell id="YOGzUElhJAN0wBcCv-QX-28" value="leer a, b, c" style="shape=parallelogram;perimeter=parallelogramPerimeter;whiteSpace=wrap;html=1;fixedSize=1;" parent="1" vertex="1">
          <mxGeometry x="215" y="170" width="100" height="30" as="geometry" />
        </mxCell>
        <mxCell id="_N8vf_obq35q-QhD7dWz-13" style="edgeStyle=orthogonalEdgeStyle;rounded=0;orthogonalLoop=1;jettySize=auto;html=1;exitX=0.5;exitY=1;exitDx=0;exitDy=0;entryX=0.5;entryY=0;entryDx=0;entryDy=0;" parent="1" source="YOGzUElhJAN0wBcCv-QX-43" target="_N8vf_obq35q-QhD7dWz-4" edge="1">
          <mxGeometry relative="1" as="geometry" />
        </mxCell>
        <mxCell id="YOGzUElhJAN0wBcCv-QX-43" value="leer a, b, c" style="shape=parallelogram;perimeter=parallelogramPerimeter;whiteSpace=wrap;html=1;fixedSize=1;" parent="1" vertex="1">
          <mxGeometry x="485" y="180" width="100" height="30" as="geometry" />
        </mxCell>
        <mxCell id="YOGzUElhJAN0wBcCv-QX-51" value="fin" style="ellipse;whiteSpace=wrap;html=1;" parent="1" vertex="1">
          <mxGeometry x="480" y="680" width="70" height="40" as="geometry" />
        </mxCell>
        <mxCell id="YOGzUElhJAN0wBcCv-QX-53" value="3" style="rounded=0;whiteSpace=wrap;html=1;" parent="1" vertex="1">
          <mxGeometry x="887" y="40" width="30" height="20" as="geometry" />
        </mxCell>
        <mxCell id="YOGzUElhJAN0wBcCv-QX-56" style="edgeStyle=orthogonalEdgeStyle;rounded=0;orthogonalLoop=1;jettySize=auto;html=1;exitX=0.5;exitY=1;exitDx=0;exitDy=0;entryX=0.5;entryY=0;entryDx=0;entryDy=0;" parent="1" source="YOGzUElhJAN0wBcCv-QX-54" target="YOGzUElhJAN0wBcCv-QX-55" edge="1">
          <mxGeometry relative="1" as="geometry" />
        </mxCell>
        <mxCell id="YOGzUElhJAN0wBcCv-QX-54" value="inicio" style="ellipse;whiteSpace=wrap;html=1;" parent="1" vertex="1">
          <mxGeometry x="957" y="60" width="70" height="40" as="geometry" />
        </mxCell>
        <mxCell id="_N8vf_obq35q-QhD7dWz-2" style="edgeStyle=orthogonalEdgeStyle;rounded=0;orthogonalLoop=1;jettySize=auto;html=1;exitX=0.5;exitY=1;exitDx=0;exitDy=0;entryX=0.5;entryY=0;entryDx=0;entryDy=0;" parent="1" source="YOGzUElhJAN0wBcCv-QX-55" target="_N8vf_obq35q-QhD7dWz-1" edge="1">
          <mxGeometry relative="1" as="geometry" />
        </mxCell>
        <mxCell id="YOGzUElhJAN0wBcCv-QX-55" value="categoría = String&lt;br&gt;sueldo= Int" style="rounded=0;whiteSpace=wrap;html=1;" parent="1" vertex="1">
          <mxGeometry x="937" y="120" width="110" height="30" as="geometry" />
        </mxCell>
        <mxCell id="YOGzUElhJAN0wBcCv-QX-62" style="edgeStyle=orthogonalEdgeStyle;rounded=0;orthogonalLoop=1;jettySize=auto;html=1;exitX=0;exitY=0.5;exitDx=0;exitDy=0;entryX=0.5;entryY=0;entryDx=0;entryDy=0;" parent="1" source="YOGzUElhJAN0wBcCv-QX-58" target="YOGzUElhJAN0wBcCv-QX-74" edge="1">
          <mxGeometry relative="1" as="geometry">
            <mxPoint x="887" y="360.00000000000006" as="targetPoint" />
          </mxGeometry>
        </mxCell>
        <mxCell id="YOGzUElhJAN0wBcCv-QX-63" style="edgeStyle=orthogonalEdgeStyle;rounded=0;orthogonalLoop=1;jettySize=auto;html=1;exitX=0.375;exitY=1;exitDx=0;exitDy=0;entryX=0.5;entryY=0;entryDx=0;entryDy=0;" parent="1" source="YOGzUElhJAN0wBcCv-QX-58" target="YOGzUElhJAN0wBcCv-QX-75" edge="1">
          <mxGeometry relative="1" as="geometry">
            <mxPoint x="967" y="360.00000000000006" as="targetPoint" />
          </mxGeometry>
        </mxCell>
        <mxCell id="YOGzUElhJAN0wBcCv-QX-64" style="edgeStyle=orthogonalEdgeStyle;rounded=0;orthogonalLoop=1;jettySize=auto;html=1;exitX=0.625;exitY=1;exitDx=0;exitDy=0;entryX=0.5;entryY=0;entryDx=0;entryDy=0;" parent="1" source="YOGzUElhJAN0wBcCv-QX-58" target="YOGzUElhJAN0wBcCv-QX-76" edge="1">
          <mxGeometry relative="1" as="geometry">
            <mxPoint x="1017" y="360.00000000000006" as="targetPoint" />
          </mxGeometry>
        </mxCell>
        <mxCell id="YOGzUElhJAN0wBcCv-QX-65" style="edgeStyle=orthogonalEdgeStyle;rounded=0;orthogonalLoop=1;jettySize=auto;html=1;exitX=1;exitY=0.5;exitDx=0;exitDy=0;entryX=0.5;entryY=0;entryDx=0;entryDy=0;" parent="1" source="YOGzUElhJAN0wBcCv-QX-58" target="YOGzUElhJAN0wBcCv-QX-77" edge="1">
          <mxGeometry relative="1" as="geometry">
            <mxPoint x="1087" y="360.00000000000006" as="targetPoint" />
          </mxGeometry>
        </mxCell>
        <mxCell id="_N8vf_obq35q-QhD7dWz-88" style="edgeStyle=orthogonalEdgeStyle;rounded=0;orthogonalLoop=1;jettySize=auto;html=1;exitX=1;exitY=0.25;exitDx=0;exitDy=0;entryX=0;entryY=0.5;entryDx=0;entryDy=0;" parent="1" source="YOGzUElhJAN0wBcCv-QX-58" target="_N8vf_obq35q-QhD7dWz-87" edge="1">
          <mxGeometry relative="1" as="geometry" />
        </mxCell>
        <mxCell id="YOGzUElhJAN0wBcCv-QX-58" value="&lt;p style=&quot;line-height: 0%;&quot;&gt;&lt;br&gt;&lt;/p&gt;" style="verticalLabelPosition=bottom;verticalAlign=top;html=1;shape=hexagon;perimeter=hexagonPerimeter2;arcSize=6;size=0.27;" parent="1" vertex="1">
          <mxGeometry x="942" y="240" width="100" height="60" as="geometry" />
        </mxCell>
        <mxCell id="YOGzUElhJAN0wBcCv-QX-59" value="categoria" style="text;html=1;strokeColor=none;fillColor=none;align=center;verticalAlign=middle;whiteSpace=wrap;rounded=0;" parent="1" vertex="1">
          <mxGeometry x="962" y="255" width="60" height="30" as="geometry" />
        </mxCell>
        <mxCell id="YOGzUElhJAN0wBcCv-QX-66" value="1" style="text;html=1;strokeColor=none;fillColor=none;align=center;verticalAlign=middle;whiteSpace=wrap;rounded=0;" parent="1" vertex="1">
          <mxGeometry x="922" y="245" width="20" height="20" as="geometry" />
        </mxCell>
        <mxCell id="YOGzUElhJAN0wBcCv-QX-69" value="2" style="text;html=1;strokeColor=none;fillColor=none;align=center;verticalAlign=middle;whiteSpace=wrap;rounded=0;" parent="1" vertex="1">
          <mxGeometry x="957" y="300" width="20" height="20" as="geometry" />
        </mxCell>
        <mxCell id="YOGzUElhJAN0wBcCv-QX-70" value="3" style="text;html=1;strokeColor=none;fillColor=none;align=center;verticalAlign=middle;whiteSpace=wrap;rounded=0;" parent="1" vertex="1">
          <mxGeometry x="1007" y="300" width="20" height="20" as="geometry" />
        </mxCell>
        <mxCell id="YOGzUElhJAN0wBcCv-QX-73" value="4" style="text;html=1;strokeColor=none;fillColor=none;align=center;verticalAlign=middle;whiteSpace=wrap;rounded=0;" parent="1" vertex="1">
          <mxGeometry x="1042" y="270" width="20" height="20" as="geometry" />
        </mxCell>
        <mxCell id="YOGzUElhJAN0wBcCv-QX-83" style="edgeStyle=orthogonalEdgeStyle;rounded=0;orthogonalLoop=1;jettySize=auto;html=1;exitX=0.5;exitY=1;exitDx=0;exitDy=0;entryX=0.5;entryY=0;entryDx=0;entryDy=0;" parent="1" source="YOGzUElhJAN0wBcCv-QX-74" target="YOGzUElhJAN0wBcCv-QX-79" edge="1">
          <mxGeometry relative="1" as="geometry" />
        </mxCell>
        <mxCell id="YOGzUElhJAN0wBcCv-QX-74" value="sueldo = sueldo*1,15" style="rounded=0;whiteSpace=wrap;html=1;" parent="1" vertex="1">
          <mxGeometry x="827" y="360" width="80" height="30" as="geometry" />
        </mxCell>
        <mxCell id="YOGzUElhJAN0wBcCv-QX-84" style="edgeStyle=orthogonalEdgeStyle;rounded=0;orthogonalLoop=1;jettySize=auto;html=1;exitX=0.5;exitY=1;exitDx=0;exitDy=0;entryX=0.5;entryY=0;entryDx=0;entryDy=0;" parent="1" source="YOGzUElhJAN0wBcCv-QX-75" target="YOGzUElhJAN0wBcCv-QX-80" edge="1">
          <mxGeometry relative="1" as="geometry" />
        </mxCell>
        <mxCell id="YOGzUElhJAN0wBcCv-QX-75" value="sueldo = sueldo*1,10" style="rounded=0;whiteSpace=wrap;html=1;" parent="1" vertex="1">
          <mxGeometry x="922" y="360" width="80" height="30" as="geometry" />
        </mxCell>
        <mxCell id="YOGzUElhJAN0wBcCv-QX-85" style="edgeStyle=orthogonalEdgeStyle;rounded=0;orthogonalLoop=1;jettySize=auto;html=1;exitX=0.5;exitY=1;exitDx=0;exitDy=0;entryX=0.5;entryY=0;entryDx=0;entryDy=0;" parent="1" source="YOGzUElhJAN0wBcCv-QX-76" target="YOGzUElhJAN0wBcCv-QX-81" edge="1">
          <mxGeometry relative="1" as="geometry" />
        </mxCell>
        <mxCell id="YOGzUElhJAN0wBcCv-QX-76" value="sueldo = sueldo*1,08" style="rounded=0;whiteSpace=wrap;html=1;" parent="1" vertex="1">
          <mxGeometry x="1007" y="360" width="80" height="30" as="geometry" />
        </mxCell>
        <mxCell id="YOGzUElhJAN0wBcCv-QX-86" style="edgeStyle=orthogonalEdgeStyle;rounded=0;orthogonalLoop=1;jettySize=auto;html=1;exitX=0.5;exitY=1;exitDx=0;exitDy=0;entryX=0.5;entryY=0;entryDx=0;entryDy=0;" parent="1" source="YOGzUElhJAN0wBcCv-QX-77" target="YOGzUElhJAN0wBcCv-QX-82" edge="1">
          <mxGeometry relative="1" as="geometry" />
        </mxCell>
        <mxCell id="YOGzUElhJAN0wBcCv-QX-77" value="sueldo = sueldo*1,07" style="rounded=0;whiteSpace=wrap;html=1;" parent="1" vertex="1">
          <mxGeometry x="1097" y="360" width="80" height="30" as="geometry" />
        </mxCell>
        <mxCell id="YOGzUElhJAN0wBcCv-QX-88" style="edgeStyle=orthogonalEdgeStyle;rounded=0;orthogonalLoop=1;jettySize=auto;html=1;exitX=1;exitY=0.75;exitDx=0;exitDy=0;entryX=0.5;entryY=0;entryDx=0;entryDy=0;" parent="1" source="YOGzUElhJAN0wBcCv-QX-79" target="YOGzUElhJAN0wBcCv-QX-87" edge="1">
          <mxGeometry relative="1" as="geometry" />
        </mxCell>
        <mxCell id="YOGzUElhJAN0wBcCv-QX-79" value="sueldo" style="shape=document;whiteSpace=wrap;html=1;boundedLbl=1;" parent="1" vertex="1">
          <mxGeometry x="842" y="410" width="45" height="30" as="geometry" />
        </mxCell>
        <mxCell id="YOGzUElhJAN0wBcCv-QX-89" style="edgeStyle=orthogonalEdgeStyle;rounded=0;orthogonalLoop=1;jettySize=auto;html=1;exitX=1;exitY=0.75;exitDx=0;exitDy=0;entryX=0.5;entryY=0;entryDx=0;entryDy=0;" parent="1" source="YOGzUElhJAN0wBcCv-QX-80" target="YOGzUElhJAN0wBcCv-QX-87" edge="1">
          <mxGeometry relative="1" as="geometry" />
        </mxCell>
        <mxCell id="YOGzUElhJAN0wBcCv-QX-80" value="sueldo" style="shape=document;whiteSpace=wrap;html=1;boundedLbl=1;" parent="1" vertex="1">
          <mxGeometry x="942" y="410" width="45" height="30" as="geometry" />
        </mxCell>
        <mxCell id="YOGzUElhJAN0wBcCv-QX-90" style="edgeStyle=orthogonalEdgeStyle;rounded=0;orthogonalLoop=1;jettySize=auto;html=1;exitX=0;exitY=0.75;exitDx=0;exitDy=0;entryX=0.5;entryY=0;entryDx=0;entryDy=0;" parent="1" source="YOGzUElhJAN0wBcCv-QX-81" target="YOGzUElhJAN0wBcCv-QX-87" edge="1">
          <mxGeometry relative="1" as="geometry" />
        </mxCell>
        <mxCell id="YOGzUElhJAN0wBcCv-QX-81" value="sueldo" style="shape=document;whiteSpace=wrap;html=1;boundedLbl=1;" parent="1" vertex="1">
          <mxGeometry x="1024.5" y="410" width="45" height="30" as="geometry" />
        </mxCell>
        <mxCell id="YOGzUElhJAN0wBcCv-QX-91" style="edgeStyle=orthogonalEdgeStyle;rounded=0;orthogonalLoop=1;jettySize=auto;html=1;exitX=0;exitY=0.75;exitDx=0;exitDy=0;entryX=0.5;entryY=0;entryDx=0;entryDy=0;" parent="1" source="YOGzUElhJAN0wBcCv-QX-82" target="YOGzUElhJAN0wBcCv-QX-87" edge="1">
          <mxGeometry relative="1" as="geometry" />
        </mxCell>
        <mxCell id="YOGzUElhJAN0wBcCv-QX-82" value="sueldo" style="shape=document;whiteSpace=wrap;html=1;boundedLbl=1;" parent="1" vertex="1">
          <mxGeometry x="1114.5" y="410" width="45" height="30" as="geometry" />
        </mxCell>
        <mxCell id="YOGzUElhJAN0wBcCv-QX-87" value="fin" style="ellipse;whiteSpace=wrap;html=1;" parent="1" vertex="1">
          <mxGeometry x="977" y="510" width="50" height="30" as="geometry" />
        </mxCell>
        <mxCell id="_N8vf_obq35q-QhD7dWz-3" style="edgeStyle=orthogonalEdgeStyle;rounded=0;orthogonalLoop=1;jettySize=auto;html=1;exitX=0.5;exitY=1;exitDx=0;exitDy=0;entryX=0.5;entryY=0;entryDx=0;entryDy=0;" parent="1" source="_N8vf_obq35q-QhD7dWz-1" target="YOGzUElhJAN0wBcCv-QX-58" edge="1">
          <mxGeometry relative="1" as="geometry" />
        </mxCell>
        <mxCell id="_N8vf_obq35q-QhD7dWz-1" value="leer categoria,&lt;br&gt;sueldo" style="shape=parallelogram;perimeter=parallelogramPerimeter;whiteSpace=wrap;html=1;fixedSize=1;" parent="1" vertex="1">
          <mxGeometry x="937" y="175" width="120" height="40" as="geometry" />
        </mxCell>
        <mxCell id="_N8vf_obq35q-QhD7dWz-12" style="edgeStyle=orthogonalEdgeStyle;rounded=0;orthogonalLoop=1;jettySize=auto;html=1;exitX=1;exitY=0.5;exitDx=0;exitDy=0;" parent="1" source="_N8vf_obq35q-QhD7dWz-4" edge="1">
          <mxGeometry relative="1" as="geometry">
            <mxPoint x="540" y="170" as="targetPoint" />
            <Array as="points">
              <mxPoint x="590" y="270" />
              <mxPoint x="590" y="170" />
            </Array>
          </mxGeometry>
        </mxCell>
        <mxCell id="_N8vf_obq35q-QhD7dWz-17" style="edgeStyle=orthogonalEdgeStyle;rounded=0;orthogonalLoop=1;jettySize=auto;html=1;exitX=0.5;exitY=1;exitDx=0;exitDy=0;entryX=0.5;entryY=0;entryDx=0;entryDy=0;" parent="1" source="_N8vf_obq35q-QhD7dWz-4" target="_N8vf_obq35q-QhD7dWz-8" edge="1">
          <mxGeometry relative="1" as="geometry" />
        </mxCell>
        <mxCell id="_N8vf_obq35q-QhD7dWz-4" value="a != b and a != c&lt;br&gt;and b != c" style="rhombus;whiteSpace=wrap;html=1;" parent="1" vertex="1">
          <mxGeometry x="470" y="235" width="100" height="85" as="geometry" />
        </mxCell>
        <mxCell id="_N8vf_obq35q-QhD7dWz-19" style="edgeStyle=orthogonalEdgeStyle;rounded=0;orthogonalLoop=1;jettySize=auto;html=1;exitX=1;exitY=0.5;exitDx=0;exitDy=0;entryX=0;entryY=0.5;entryDx=0;entryDy=0;" parent="1" source="_N8vf_obq35q-QhD7dWz-8" target="_N8vf_obq35q-QhD7dWz-16" edge="1">
          <mxGeometry relative="1" as="geometry" />
        </mxCell>
        <mxCell id="_N8vf_obq35q-QhD7dWz-35" style="edgeStyle=orthogonalEdgeStyle;rounded=0;orthogonalLoop=1;jettySize=auto;html=1;exitX=0.5;exitY=1;exitDx=0;exitDy=0;entryX=0.5;entryY=0;entryDx=0;entryDy=0;" parent="1" source="_N8vf_obq35q-QhD7dWz-8" target="_N8vf_obq35q-QhD7dWz-29" edge="1">
          <mxGeometry relative="1" as="geometry" />
        </mxCell>
        <mxCell id="_N8vf_obq35q-QhD7dWz-8" value="a &amp;gt; b and a &amp;gt; c" style="rhombus;whiteSpace=wrap;html=1;" parent="1" vertex="1">
          <mxGeometry x="472.5" y="335" width="95" height="70" as="geometry" />
        </mxCell>
        <mxCell id="_N8vf_obq35q-QhD7dWz-20" style="edgeStyle=orthogonalEdgeStyle;rounded=0;orthogonalLoop=1;jettySize=auto;html=1;exitX=1;exitY=0.5;exitDx=0;exitDy=0;entryX=0;entryY=0.5;entryDx=0;entryDy=0;" parent="1" source="_N8vf_obq35q-QhD7dWz-16" target="_N8vf_obq35q-QhD7dWz-18" edge="1">
          <mxGeometry relative="1" as="geometry" />
        </mxCell>
        <mxCell id="_N8vf_obq35q-QhD7dWz-23" style="edgeStyle=orthogonalEdgeStyle;rounded=0;orthogonalLoop=1;jettySize=auto;html=1;exitX=0.5;exitY=1;exitDx=0;exitDy=0;entryX=0.5;entryY=0;entryDx=0;entryDy=0;" parent="1" source="_N8vf_obq35q-QhD7dWz-16" target="_N8vf_obq35q-QhD7dWz-21" edge="1">
          <mxGeometry relative="1" as="geometry" />
        </mxCell>
        <mxCell id="_N8vf_obq35q-QhD7dWz-16" value="b &amp;gt; c" style="rhombus;whiteSpace=wrap;html=1;" parent="1" vertex="1">
          <mxGeometry x="585" y="347.5" width="50" height="45" as="geometry" />
        </mxCell>
        <mxCell id="_N8vf_obq35q-QhD7dWz-49" style="edgeStyle=orthogonalEdgeStyle;rounded=0;orthogonalLoop=1;jettySize=auto;html=1;exitX=1;exitY=0.75;exitDx=0;exitDy=0;" parent="1" source="_N8vf_obq35q-QhD7dWz-18" edge="1">
          <mxGeometry relative="1" as="geometry">
            <mxPoint x="580" y="660" as="targetPoint" />
            <Array as="points">
              <mxPoint x="750" y="380" />
              <mxPoint x="750" y="660" />
            </Array>
          </mxGeometry>
        </mxCell>
        <mxCell id="_N8vf_obq35q-QhD7dWz-18" value="a, b, c" style="shape=document;whiteSpace=wrap;html=1;boundedLbl=1;" parent="1" vertex="1">
          <mxGeometry x="660" y="350" width="70" height="40" as="geometry" />
        </mxCell>
        <mxCell id="_N8vf_obq35q-QhD7dWz-52" style="edgeStyle=orthogonalEdgeStyle;rounded=0;orthogonalLoop=1;jettySize=auto;html=1;exitX=1;exitY=0.5;exitDx=0;exitDy=0;" parent="1" source="_N8vf_obq35q-QhD7dWz-21" edge="1">
          <mxGeometry relative="1" as="geometry">
            <mxPoint x="750" y="422.33333333333337" as="targetPoint" />
          </mxGeometry>
        </mxCell>
        <mxCell id="_N8vf_obq35q-QhD7dWz-21" value="a, c, b" style="shape=document;whiteSpace=wrap;html=1;boundedLbl=1;" parent="1" vertex="1">
          <mxGeometry x="575" y="405" width="70" height="35" as="geometry" />
        </mxCell>
        <mxCell id="_N8vf_obq35q-QhD7dWz-27" style="edgeStyle=orthogonalEdgeStyle;rounded=0;orthogonalLoop=1;jettySize=auto;html=1;exitX=1;exitY=0.5;exitDx=0;exitDy=0;entryX=0;entryY=0.5;entryDx=0;entryDy=0;" parent="1" source="_N8vf_obq35q-QhD7dWz-29" target="_N8vf_obq35q-QhD7dWz-32" edge="1">
          <mxGeometry relative="1" as="geometry" />
        </mxCell>
        <mxCell id="_N8vf_obq35q-QhD7dWz-46" style="edgeStyle=orthogonalEdgeStyle;rounded=0;orthogonalLoop=1;jettySize=auto;html=1;exitX=0.5;exitY=1;exitDx=0;exitDy=0;entryX=0.5;entryY=0;entryDx=0;entryDy=0;" parent="1" source="_N8vf_obq35q-QhD7dWz-29" target="_N8vf_obq35q-QhD7dWz-42" edge="1">
          <mxGeometry relative="1" as="geometry" />
        </mxCell>
        <mxCell id="_N8vf_obq35q-QhD7dWz-29" value="b &amp;gt; a and b &amp;gt; c" style="rhombus;whiteSpace=wrap;html=1;" parent="1" vertex="1">
          <mxGeometry x="472.5" y="445" width="95" height="70" as="geometry" />
        </mxCell>
        <mxCell id="_N8vf_obq35q-QhD7dWz-30" style="edgeStyle=orthogonalEdgeStyle;rounded=0;orthogonalLoop=1;jettySize=auto;html=1;exitX=1;exitY=0.5;exitDx=0;exitDy=0;entryX=0;entryY=0.5;entryDx=0;entryDy=0;" parent="1" source="_N8vf_obq35q-QhD7dWz-32" target="_N8vf_obq35q-QhD7dWz-33" edge="1">
          <mxGeometry relative="1" as="geometry" />
        </mxCell>
        <mxCell id="_N8vf_obq35q-QhD7dWz-31" style="edgeStyle=orthogonalEdgeStyle;rounded=0;orthogonalLoop=1;jettySize=auto;html=1;exitX=0.5;exitY=1;exitDx=0;exitDy=0;entryX=0.5;entryY=0;entryDx=0;entryDy=0;" parent="1" source="_N8vf_obq35q-QhD7dWz-32" target="_N8vf_obq35q-QhD7dWz-34" edge="1">
          <mxGeometry relative="1" as="geometry" />
        </mxCell>
        <mxCell id="_N8vf_obq35q-QhD7dWz-32" value="a &amp;gt; c" style="rhombus;whiteSpace=wrap;html=1;" parent="1" vertex="1">
          <mxGeometry x="585" y="457.5" width="50" height="45" as="geometry" />
        </mxCell>
        <mxCell id="_N8vf_obq35q-QhD7dWz-50" style="edgeStyle=orthogonalEdgeStyle;rounded=0;orthogonalLoop=1;jettySize=auto;html=1;exitX=1;exitY=0.5;exitDx=0;exitDy=0;" parent="1" source="_N8vf_obq35q-QhD7dWz-33" edge="1">
          <mxGeometry relative="1" as="geometry">
            <mxPoint x="750" y="479.7777777777777" as="targetPoint" />
          </mxGeometry>
        </mxCell>
        <mxCell id="_N8vf_obq35q-QhD7dWz-33" value="b, a, c" style="shape=document;whiteSpace=wrap;html=1;boundedLbl=1;" parent="1" vertex="1">
          <mxGeometry x="660" y="460" width="70" height="40" as="geometry" />
        </mxCell>
        <mxCell id="_N8vf_obq35q-QhD7dWz-53" style="edgeStyle=orthogonalEdgeStyle;rounded=0;orthogonalLoop=1;jettySize=auto;html=1;exitX=1;exitY=0.5;exitDx=0;exitDy=0;" parent="1" source="_N8vf_obq35q-QhD7dWz-34" edge="1">
          <mxGeometry relative="1" as="geometry">
            <mxPoint x="750" y="532.5555555555555" as="targetPoint" />
          </mxGeometry>
        </mxCell>
        <mxCell id="_N8vf_obq35q-QhD7dWz-34" value="b, c, a" style="shape=document;whiteSpace=wrap;html=1;boundedLbl=1;" parent="1" vertex="1">
          <mxGeometry x="575" y="515" width="70" height="35" as="geometry" />
        </mxCell>
        <mxCell id="_N8vf_obq35q-QhD7dWz-40" style="edgeStyle=orthogonalEdgeStyle;rounded=0;orthogonalLoop=1;jettySize=auto;html=1;exitX=1;exitY=0.5;exitDx=0;exitDy=0;entryX=0;entryY=0.5;entryDx=0;entryDy=0;" parent="1" source="_N8vf_obq35q-QhD7dWz-42" target="_N8vf_obq35q-QhD7dWz-43" edge="1">
          <mxGeometry relative="1" as="geometry" />
        </mxCell>
        <mxCell id="_N8vf_obq35q-QhD7dWz-41" style="edgeStyle=orthogonalEdgeStyle;rounded=0;orthogonalLoop=1;jettySize=auto;html=1;exitX=0.5;exitY=1;exitDx=0;exitDy=0;entryX=0.5;entryY=0;entryDx=0;entryDy=0;" parent="1" source="_N8vf_obq35q-QhD7dWz-42" target="_N8vf_obq35q-QhD7dWz-44" edge="1">
          <mxGeometry relative="1" as="geometry" />
        </mxCell>
        <mxCell id="_N8vf_obq35q-QhD7dWz-42" value="a &amp;gt; b" style="rhombus;whiteSpace=wrap;html=1;" parent="1" vertex="1">
          <mxGeometry x="495" y="562.5" width="50" height="45" as="geometry" />
        </mxCell>
        <mxCell id="_N8vf_obq35q-QhD7dWz-51" style="edgeStyle=orthogonalEdgeStyle;rounded=0;orthogonalLoop=1;jettySize=auto;html=1;exitX=1;exitY=0.5;exitDx=0;exitDy=0;" parent="1" source="_N8vf_obq35q-QhD7dWz-43" edge="1">
          <mxGeometry relative="1" as="geometry">
            <mxPoint x="750" y="584.7777777777777" as="targetPoint" />
          </mxGeometry>
        </mxCell>
        <mxCell id="_N8vf_obq35q-QhD7dWz-43" value="c, a, b" style="shape=document;whiteSpace=wrap;html=1;boundedLbl=1;" parent="1" vertex="1">
          <mxGeometry x="570" y="565" width="70" height="40" as="geometry" />
        </mxCell>
        <mxCell id="_N8vf_obq35q-QhD7dWz-47" style="edgeStyle=orthogonalEdgeStyle;rounded=0;orthogonalLoop=1;jettySize=auto;html=1;exitX=1;exitY=0.75;exitDx=0;exitDy=0;entryX=0.5;entryY=0;entryDx=0;entryDy=0;" parent="1" source="_N8vf_obq35q-QhD7dWz-44" target="YOGzUElhJAN0wBcCv-QX-51" edge="1">
          <mxGeometry relative="1" as="geometry">
            <Array as="points">
              <mxPoint x="575" y="646" />
              <mxPoint x="575" y="660" />
              <mxPoint x="515" y="660" />
            </Array>
          </mxGeometry>
        </mxCell>
        <mxCell id="_N8vf_obq35q-QhD7dWz-44" value="c, b, a" style="shape=document;whiteSpace=wrap;html=1;boundedLbl=1;" parent="1" vertex="1">
          <mxGeometry x="485" y="620" width="70" height="35" as="geometry" />
        </mxCell>
        <mxCell id="_N8vf_obq35q-QhD7dWz-54" value="4" style="rounded=0;whiteSpace=wrap;html=1;" parent="1" vertex="1">
          <mxGeometry x="1250" y="40" width="30" height="20" as="geometry" />
        </mxCell>
        <mxCell id="_N8vf_obq35q-QhD7dWz-59" style="edgeStyle=orthogonalEdgeStyle;rounded=0;orthogonalLoop=1;jettySize=auto;html=1;exitX=0.5;exitY=1;exitDx=0;exitDy=0;entryX=0.5;entryY=0;entryDx=0;entryDy=0;" parent="1" source="_N8vf_obq35q-QhD7dWz-55" target="_N8vf_obq35q-QhD7dWz-56" edge="1">
          <mxGeometry relative="1" as="geometry" />
        </mxCell>
        <mxCell id="_N8vf_obq35q-QhD7dWz-55" value="inicio" style="ellipse;whiteSpace=wrap;html=1;" parent="1" vertex="1">
          <mxGeometry x="1291" y="40" width="70" height="40" as="geometry" />
        </mxCell>
        <mxCell id="_N8vf_obq35q-QhD7dWz-67" style="edgeStyle=orthogonalEdgeStyle;rounded=0;orthogonalLoop=1;jettySize=auto;html=1;exitX=0.5;exitY=1;exitDx=0;exitDy=0;entryX=0.5;entryY=0;entryDx=0;entryDy=0;" parent="1" source="_N8vf_obq35q-QhD7dWz-56" target="_N8vf_obq35q-QhD7dWz-57" edge="1">
          <mxGeometry relative="1" as="geometry" />
        </mxCell>
        <mxCell id="_N8vf_obq35q-QhD7dWz-56" value="a, b: int" style="rounded=0;whiteSpace=wrap;html=1;" parent="1" vertex="1">
          <mxGeometry x="1281" y="120" width="90" height="30" as="geometry" />
        </mxCell>
        <mxCell id="_N8vf_obq35q-QhD7dWz-68" style="edgeStyle=orthogonalEdgeStyle;rounded=0;orthogonalLoop=1;jettySize=auto;html=1;exitX=0.5;exitY=1;exitDx=0;exitDy=0;entryX=0.5;entryY=0;entryDx=0;entryDy=0;" parent="1" source="_N8vf_obq35q-QhD7dWz-57" target="_N8vf_obq35q-QhD7dWz-63" edge="1">
          <mxGeometry relative="1" as="geometry" />
        </mxCell>
        <mxCell id="_N8vf_obq35q-QhD7dWz-57" value="leer a, b" style="shape=parallelogram;perimeter=parallelogramPerimeter;whiteSpace=wrap;html=1;fixedSize=1;" parent="1" vertex="1">
          <mxGeometry x="1284.5" y="180" width="83" height="25" as="geometry" />
        </mxCell>
        <mxCell id="_N8vf_obq35q-QhD7dWz-69" style="edgeStyle=orthogonalEdgeStyle;rounded=0;orthogonalLoop=1;jettySize=auto;html=1;exitX=1;exitY=0.5;exitDx=0;exitDy=0;" parent="1" source="_N8vf_obq35q-QhD7dWz-63" edge="1">
          <mxGeometry relative="1" as="geometry">
            <mxPoint x="1326" y="160" as="targetPoint" />
            <Array as="points">
              <mxPoint x="1381" y="240" />
              <mxPoint x="1381" y="160" />
              <mxPoint x="1326" y="160" />
            </Array>
          </mxGeometry>
        </mxCell>
        <mxCell id="_N8vf_obq35q-QhD7dWz-72" style="edgeStyle=orthogonalEdgeStyle;rounded=0;orthogonalLoop=1;jettySize=auto;html=1;exitX=0.5;exitY=1;exitDx=0;exitDy=0;entryX=0.5;entryY=0;entryDx=0;entryDy=0;" parent="1" source="_N8vf_obq35q-QhD7dWz-63" target="_N8vf_obq35q-QhD7dWz-71" edge="1">
          <mxGeometry relative="1" as="geometry" />
        </mxCell>
        <mxCell id="_N8vf_obq35q-QhD7dWz-63" value="a ==b" style="rhombus;whiteSpace=wrap;html=1;" parent="1" vertex="1">
          <mxGeometry x="1304.5" y="220" width="43" height="40" as="geometry" />
        </mxCell>
        <mxCell id="_N8vf_obq35q-QhD7dWz-71" value="fin" style="ellipse;whiteSpace=wrap;html=1;" parent="1" vertex="1">
          <mxGeometry x="1301" y="285" width="50" height="30" as="geometry" />
        </mxCell>
        <mxCell id="_N8vf_obq35q-QhD7dWz-73" value="si" style="text;html=1;strokeColor=none;fillColor=none;align=center;verticalAlign=middle;whiteSpace=wrap;rounded=0;" parent="1" vertex="1">
          <mxGeometry x="1301" y="260" width="20" height="20" as="geometry" />
        </mxCell>
        <mxCell id="_N8vf_obq35q-QhD7dWz-75" value="no" style="text;html=1;strokeColor=none;fillColor=none;align=center;verticalAlign=middle;whiteSpace=wrap;rounded=0;" parent="1" vertex="1">
          <mxGeometry x="1351" y="215" width="20" height="20" as="geometry" />
        </mxCell>
        <mxCell id="_N8vf_obq35q-QhD7dWz-77" value="si" style="text;html=1;strokeColor=none;fillColor=none;align=center;verticalAlign=middle;whiteSpace=wrap;rounded=0;" parent="1" vertex="1">
          <mxGeometry x="635" y="347.5" width="20" height="20" as="geometry" />
        </mxCell>
        <mxCell id="_N8vf_obq35q-QhD7dWz-79" value="no" style="text;html=1;strokeColor=none;fillColor=none;align=center;verticalAlign=middle;whiteSpace=wrap;rounded=0;" parent="1" vertex="1">
          <mxGeometry x="615" y="385" width="20" height="20" as="geometry" />
        </mxCell>
        <mxCell id="_N8vf_obq35q-QhD7dWz-80" value="si" style="text;html=1;strokeColor=none;fillColor=none;align=center;verticalAlign=middle;whiteSpace=wrap;rounded=0;" parent="1" vertex="1">
          <mxGeometry x="635" y="460" width="20" height="20" as="geometry" />
        </mxCell>
        <mxCell id="_N8vf_obq35q-QhD7dWz-81" value="no" style="text;html=1;strokeColor=none;fillColor=none;align=center;verticalAlign=middle;whiteSpace=wrap;rounded=0;" parent="1" vertex="1">
          <mxGeometry x="615" y="497.5" width="20" height="20" as="geometry" />
        </mxCell>
        <mxCell id="_N8vf_obq35q-QhD7dWz-82" value="si" style="text;html=1;strokeColor=none;fillColor=none;align=center;verticalAlign=middle;whiteSpace=wrap;rounded=0;" parent="1" vertex="1">
          <mxGeometry x="550" y="562.5" width="20" height="20" as="geometry" />
        </mxCell>
        <mxCell id="_N8vf_obq35q-QhD7dWz-83" value="no" style="text;html=1;strokeColor=none;fillColor=none;align=center;verticalAlign=middle;whiteSpace=wrap;rounded=0;" parent="1" vertex="1">
          <mxGeometry x="530" y="600" width="20" height="20" as="geometry" />
        </mxCell>
        <mxCell id="_N8vf_obq35q-QhD7dWz-86" value="5" style="rounded=0;whiteSpace=wrap;html=1;" parent="1" vertex="1">
          <mxGeometry x="1450" y="40" width="30" height="20" as="geometry" />
        </mxCell>
        <mxCell id="_N8vf_obq35q-QhD7dWz-89" style="edgeStyle=orthogonalEdgeStyle;rounded=0;orthogonalLoop=1;jettySize=auto;html=1;exitX=0.75;exitY=0;exitDx=0;exitDy=0;" parent="1" source="_N8vf_obq35q-QhD7dWz-87" edge="1">
          <mxGeometry relative="1" as="geometry">
            <mxPoint x="1000" y="160" as="targetPoint" />
            <Array as="points">
              <mxPoint x="1127" y="160" />
            </Array>
          </mxGeometry>
        </mxCell>
        <mxCell id="_N8vf_obq35q-QhD7dWz-87" value="error no valido" style="shape=document;whiteSpace=wrap;html=1;boundedLbl=1;" parent="1" vertex="1">
          <mxGeometry x="1080" y="220" width="63" height="40" as="geometry" />
        </mxCell>
        <mxCell id="_N8vf_obq35q-QhD7dWz-95" style="edgeStyle=orthogonalEdgeStyle;rounded=0;orthogonalLoop=1;jettySize=auto;html=1;exitX=0.5;exitY=1;exitDx=0;exitDy=0;entryX=0.5;entryY=0;entryDx=0;entryDy=0;" parent="1" source="_N8vf_obq35q-QhD7dWz-91" target="_N8vf_obq35q-QhD7dWz-92" edge="1">
          <mxGeometry relative="1" as="geometry" />
        </mxCell>
        <mxCell id="_N8vf_obq35q-QhD7dWz-91" value="inicio" style="ellipse;whiteSpace=wrap;html=1;" parent="1" vertex="1">
          <mxGeometry x="1520" y="40" width="70" height="40" as="geometry" />
        </mxCell>
        <mxCell id="_N8vf_obq35q-QhD7dWz-94" style="edgeStyle=orthogonalEdgeStyle;rounded=0;orthogonalLoop=1;jettySize=auto;html=1;exitX=0.5;exitY=1;exitDx=0;exitDy=0;entryX=0.5;entryY=0;entryDx=0;entryDy=0;" parent="1" source="_N8vf_obq35q-QhD7dWz-92" target="_N8vf_obq35q-QhD7dWz-93" edge="1">
          <mxGeometry relative="1" as="geometry" />
        </mxCell>
        <mxCell id="_N8vf_obq35q-QhD7dWz-92" value="n1 : int" style="rounded=0;whiteSpace=wrap;html=1;" parent="1" vertex="1">
          <mxGeometry x="1510" y="100" width="90" height="30" as="geometry" />
        </mxCell>
        <mxCell id="_N8vf_obq35q-QhD7dWz-98" style="edgeStyle=orthogonalEdgeStyle;rounded=0;orthogonalLoop=1;jettySize=auto;html=1;exitX=0.5;exitY=1;exitDx=0;exitDy=0;entryX=0.5;entryY=0;entryDx=0;entryDy=0;" parent="1" source="_N8vf_obq35q-QhD7dWz-93" target="_N8vf_obq35q-QhD7dWz-96" edge="1">
          <mxGeometry relative="1" as="geometry" />
        </mxCell>
        <mxCell id="_N8vf_obq35q-QhD7dWz-93" value="leer n1" style="shape=parallelogram;perimeter=parallelogramPerimeter;whiteSpace=wrap;html=1;fixedSize=1;" parent="1" vertex="1">
          <mxGeometry x="1513.5" y="160" width="83" height="25" as="geometry" />
        </mxCell>
        <mxCell id="_N8vf_obq35q-QhD7dWz-100" style="edgeStyle=orthogonalEdgeStyle;rounded=0;orthogonalLoop=1;jettySize=auto;html=1;exitX=0;exitY=0.5;exitDx=0;exitDy=0;entryX=0.75;entryY=0;entryDx=0;entryDy=0;" parent="1" source="_N8vf_obq35q-QhD7dWz-96" target="_N8vf_obq35q-QhD7dWz-99" edge="1">
          <mxGeometry relative="1" as="geometry" />
        </mxCell>
        <mxCell id="_N8vf_obq35q-QhD7dWz-102" style="edgeStyle=orthogonalEdgeStyle;rounded=0;orthogonalLoop=1;jettySize=auto;html=1;exitX=0;exitY=0.75;exitDx=0;exitDy=0;entryX=0.25;entryY=0;entryDx=0;entryDy=0;" parent="1" source="_N8vf_obq35q-QhD7dWz-96" target="_N8vf_obq35q-QhD7dWz-101" edge="1">
          <mxGeometry relative="1" as="geometry">
            <Array as="points">
              <mxPoint x="1516" y="270" />
              <mxPoint x="1446" y="270" />
            </Array>
          </mxGeometry>
        </mxCell>
        <mxCell id="_N8vf_obq35q-QhD7dWz-107" style="edgeStyle=orthogonalEdgeStyle;rounded=0;orthogonalLoop=1;jettySize=auto;html=1;exitX=0.375;exitY=1;exitDx=0;exitDy=0;entryX=0.25;entryY=0;entryDx=0;entryDy=0;" parent="1" source="_N8vf_obq35q-QhD7dWz-96" target="_N8vf_obq35q-QhD7dWz-103" edge="1">
          <mxGeometry relative="1" as="geometry" />
        </mxCell>
        <mxCell id="_N8vf_obq35q-QhD7dWz-108" style="edgeStyle=orthogonalEdgeStyle;rounded=0;orthogonalLoop=1;jettySize=auto;html=1;exitX=0.5;exitY=1;exitDx=0;exitDy=0;entryX=0.25;entryY=0;entryDx=0;entryDy=0;" parent="1" source="_N8vf_obq35q-QhD7dWz-96" target="_N8vf_obq35q-QhD7dWz-104" edge="1">
          <mxGeometry relative="1" as="geometry">
            <Array as="points">
              <mxPoint x="1560" y="270" />
              <mxPoint x="1560" y="300" />
            </Array>
          </mxGeometry>
        </mxCell>
        <mxCell id="_N8vf_obq35q-QhD7dWz-109" style="edgeStyle=orthogonalEdgeStyle;rounded=0;orthogonalLoop=1;jettySize=auto;html=1;exitX=0.625;exitY=1;exitDx=0;exitDy=0;entryX=0.5;entryY=0;entryDx=0;entryDy=0;" parent="1" source="_N8vf_obq35q-QhD7dWz-96" target="_N8vf_obq35q-QhD7dWz-105" edge="1">
          <mxGeometry relative="1" as="geometry">
            <Array as="points">
              <mxPoint x="1568" y="280" />
              <mxPoint x="1648" y="280" />
            </Array>
          </mxGeometry>
        </mxCell>
        <mxCell id="_N8vf_obq35q-QhD7dWz-110" style="edgeStyle=orthogonalEdgeStyle;rounded=0;orthogonalLoop=1;jettySize=auto;html=1;exitX=1;exitY=0.75;exitDx=0;exitDy=0;entryX=0.5;entryY=0;entryDx=0;entryDy=0;" parent="1" source="_N8vf_obq35q-QhD7dWz-96" target="_N8vf_obq35q-QhD7dWz-106" edge="1">
          <mxGeometry relative="1" as="geometry" />
        </mxCell>
        <mxCell id="_N8vf_obq35q-QhD7dWz-112" style="edgeStyle=orthogonalEdgeStyle;rounded=0;orthogonalLoop=1;jettySize=auto;html=1;exitX=1;exitY=0.5;exitDx=0;exitDy=0;entryX=0.5;entryY=0;entryDx=0;entryDy=0;" parent="1" source="_N8vf_obq35q-QhD7dWz-96" target="_N8vf_obq35q-QhD7dWz-111" edge="1">
          <mxGeometry relative="1" as="geometry" />
        </mxCell>
        <mxCell id="_N8vf_obq35q-QhD7dWz-114" style="edgeStyle=orthogonalEdgeStyle;rounded=0;orthogonalLoop=1;jettySize=auto;html=1;exitX=1;exitY=0.25;exitDx=0;exitDy=0;entryX=0;entryY=0.25;entryDx=0;entryDy=0;" parent="1" source="_N8vf_obq35q-QhD7dWz-96" target="_N8vf_obq35q-QhD7dWz-113" edge="1">
          <mxGeometry relative="1" as="geometry" />
        </mxCell>
        <mxCell id="_N8vf_obq35q-QhD7dWz-96" value="&lt;p style=&quot;line-height: 0%;&quot;&gt;&lt;br&gt;&lt;/p&gt;" style="verticalLabelPosition=bottom;verticalAlign=top;html=1;shape=hexagon;perimeter=hexagonPerimeter2;arcSize=6;size=0.27;" parent="1" vertex="1">
          <mxGeometry x="1505" y="210" width="100" height="60" as="geometry" />
        </mxCell>
        <mxCell id="_N8vf_obq35q-QhD7dWz-97" value="n1" style="text;html=1;strokeColor=none;fillColor=none;align=center;verticalAlign=middle;whiteSpace=wrap;rounded=0;" parent="1" vertex="1">
          <mxGeometry x="1525" y="225" width="60" height="30" as="geometry" />
        </mxCell>
        <mxCell id="_N8vf_obq35q-QhD7dWz-127" style="edgeStyle=orthogonalEdgeStyle;rounded=0;orthogonalLoop=1;jettySize=auto;html=1;exitX=0;exitY=0.75;exitDx=0;exitDy=0;" parent="1" source="_N8vf_obq35q-QhD7dWz-99" edge="1">
          <mxGeometry relative="1" as="geometry">
            <mxPoint x="1540" y="360" as="targetPoint" />
            <Array as="points">
              <mxPoint x="1360" y="323" />
              <mxPoint x="1360" y="360" />
            </Array>
          </mxGeometry>
        </mxCell>
        <mxCell id="_N8vf_obq35q-QhD7dWz-99" value="lunes" style="shape=document;whiteSpace=wrap;html=1;boundedLbl=1;" parent="1" vertex="1">
          <mxGeometry x="1380" y="300" width="45" height="30" as="geometry" />
        </mxCell>
        <mxCell id="_N8vf_obq35q-QhD7dWz-128" style="edgeStyle=orthogonalEdgeStyle;rounded=0;orthogonalLoop=1;jettySize=auto;html=1;exitX=0;exitY=0.75;exitDx=0;exitDy=0;" parent="1" source="_N8vf_obq35q-QhD7dWz-101" edge="1">
          <mxGeometry relative="1" as="geometry">
            <mxPoint x="1435.157894736842" y="360" as="targetPoint" />
          </mxGeometry>
        </mxCell>
        <mxCell id="_N8vf_obq35q-QhD7dWz-101" value="martes" style="shape=document;whiteSpace=wrap;html=1;boundedLbl=1;" parent="1" vertex="1">
          <mxGeometry x="1435" y="300" width="45" height="30" as="geometry" />
        </mxCell>
        <mxCell id="_N8vf_obq35q-QhD7dWz-125" style="edgeStyle=orthogonalEdgeStyle;rounded=0;orthogonalLoop=1;jettySize=auto;html=1;exitX=1;exitY=0.75;exitDx=0;exitDy=0;entryX=0.5;entryY=0;entryDx=0;entryDy=0;" parent="1" source="_N8vf_obq35q-QhD7dWz-103" target="_N8vf_obq35q-QhD7dWz-124" edge="1">
          <mxGeometry relative="1" as="geometry">
            <Array as="points">
              <mxPoint x="1539" y="326" />
              <mxPoint x="1539" y="360" />
              <mxPoint x="1538" y="360" />
            </Array>
          </mxGeometry>
        </mxCell>
        <mxCell id="_N8vf_obq35q-QhD7dWz-103" value="miercoles" style="shape=document;whiteSpace=wrap;html=1;boundedLbl=1;" parent="1" vertex="1">
          <mxGeometry x="1488.5" y="300" width="66.5" height="35" as="geometry" />
        </mxCell>
        <mxCell id="_N8vf_obq35q-QhD7dWz-133" style="edgeStyle=orthogonalEdgeStyle;rounded=0;orthogonalLoop=1;jettySize=auto;html=1;exitX=1;exitY=0.75;exitDx=0;exitDy=0;" parent="1" source="_N8vf_obq35q-QhD7dWz-104" edge="1">
          <mxGeometry relative="1" as="geometry">
            <mxPoint x="1609.8947368421054" y="360" as="targetPoint" />
          </mxGeometry>
        </mxCell>
        <mxCell id="_N8vf_obq35q-QhD7dWz-104" value="jueves" style="shape=document;whiteSpace=wrap;html=1;boundedLbl=1;" parent="1" vertex="1">
          <mxGeometry x="1565" y="300" width="45" height="30" as="geometry" />
        </mxCell>
        <mxCell id="_N8vf_obq35q-QhD7dWz-132" style="edgeStyle=orthogonalEdgeStyle;rounded=0;orthogonalLoop=1;jettySize=auto;html=1;exitX=1;exitY=0.75;exitDx=0;exitDy=0;" parent="1" source="_N8vf_obq35q-QhD7dWz-105" edge="1">
          <mxGeometry relative="1" as="geometry">
            <mxPoint x="1669.8947368421054" y="360" as="targetPoint" />
          </mxGeometry>
        </mxCell>
        <mxCell id="_N8vf_obq35q-QhD7dWz-105" value="viernes" style="shape=document;whiteSpace=wrap;html=1;boundedLbl=1;" parent="1" vertex="1">
          <mxGeometry x="1625" y="300" width="45" height="30" as="geometry" />
        </mxCell>
        <mxCell id="_N8vf_obq35q-QhD7dWz-131" style="edgeStyle=orthogonalEdgeStyle;rounded=0;orthogonalLoop=1;jettySize=auto;html=1;exitX=1;exitY=0.75;exitDx=0;exitDy=0;" parent="1" source="_N8vf_obq35q-QhD7dWz-106" edge="1">
          <mxGeometry relative="1" as="geometry">
            <mxPoint x="1729.8947368421054" y="360" as="targetPoint" />
          </mxGeometry>
        </mxCell>
        <mxCell id="_N8vf_obq35q-QhD7dWz-106" value="sabado" style="shape=document;whiteSpace=wrap;html=1;boundedLbl=1;" parent="1" vertex="1">
          <mxGeometry x="1685" y="300" width="45" height="30" as="geometry" />
        </mxCell>
        <mxCell id="_N8vf_obq35q-QhD7dWz-130" style="edgeStyle=orthogonalEdgeStyle;rounded=0;orthogonalLoop=1;jettySize=auto;html=1;exitX=1;exitY=0.75;exitDx=0;exitDy=0;" parent="1" source="_N8vf_obq35q-QhD7dWz-111" edge="1">
          <mxGeometry relative="1" as="geometry">
            <mxPoint x="1540" y="360" as="targetPoint" />
            <Array as="points">
              <mxPoint x="1805" y="303" />
              <mxPoint x="1805" y="360" />
            </Array>
          </mxGeometry>
        </mxCell>
        <mxCell id="_N8vf_obq35q-QhD7dWz-111" value="domingo" style="shape=document;whiteSpace=wrap;html=1;boundedLbl=1;" parent="1" vertex="1">
          <mxGeometry x="1740" y="280" width="45" height="30" as="geometry" />
        </mxCell>
        <mxCell id="_N8vf_obq35q-QhD7dWz-115" style="edgeStyle=orthogonalEdgeStyle;rounded=0;orthogonalLoop=1;jettySize=auto;html=1;exitX=1;exitY=0.25;exitDx=0;exitDy=0;" parent="1" source="_N8vf_obq35q-QhD7dWz-113" edge="1">
          <mxGeometry relative="1" as="geometry">
            <mxPoint x="1560" y="140" as="targetPoint" />
            <Array as="points">
              <mxPoint x="1880" y="230" />
              <mxPoint x="1880" y="140" />
            </Array>
          </mxGeometry>
        </mxCell>
        <mxCell id="_N8vf_obq35q-QhD7dWz-113" value="error numero invalido" style="shape=document;whiteSpace=wrap;html=1;boundedLbl=1;" parent="1" vertex="1">
          <mxGeometry x="1770" y="220" width="90" height="40" as="geometry" />
        </mxCell>
        <mxCell id="_N8vf_obq35q-QhD7dWz-116" value="1" style="text;html=1;strokeColor=none;fillColor=none;align=center;verticalAlign=middle;whiteSpace=wrap;rounded=0;" parent="1" vertex="1">
          <mxGeometry x="1447.5" y="220" width="20" height="20" as="geometry" />
        </mxCell>
        <mxCell id="_N8vf_obq35q-QhD7dWz-117" value="3" style="text;html=1;strokeColor=none;fillColor=none;align=center;verticalAlign=middle;whiteSpace=wrap;rounded=0;" parent="1" vertex="1">
          <mxGeometry x="1513.5" y="270" width="20" height="20" as="geometry" />
        </mxCell>
        <mxCell id="_N8vf_obq35q-QhD7dWz-118" value="2" style="text;html=1;strokeColor=none;fillColor=none;align=center;verticalAlign=middle;whiteSpace=wrap;rounded=0;" parent="1" vertex="1">
          <mxGeometry x="1468.5" y="245" width="20" height="20" as="geometry" />
        </mxCell>
        <mxCell id="_N8vf_obq35q-QhD7dWz-120" value="4" style="text;html=1;strokeColor=none;fillColor=none;align=center;verticalAlign=middle;whiteSpace=wrap;rounded=0;" parent="1" vertex="1">
          <mxGeometry x="1555" y="280" width="20" height="20" as="geometry" />
        </mxCell>
        <mxCell id="_N8vf_obq35q-QhD7dWz-121" value="5" style="text;html=1;strokeColor=none;fillColor=none;align=center;verticalAlign=middle;whiteSpace=wrap;rounded=0;" parent="1" vertex="1">
          <mxGeometry x="1585" y="260" width="20" height="20" as="geometry" />
        </mxCell>
        <mxCell id="_N8vf_obq35q-QhD7dWz-122" value="6" style="text;html=1;strokeColor=none;fillColor=none;align=center;verticalAlign=middle;whiteSpace=wrap;rounded=0;" parent="1" vertex="1">
          <mxGeometry x="1620" y="250" width="20" height="20" as="geometry" />
        </mxCell>
        <mxCell id="_N8vf_obq35q-QhD7dWz-123" value="7" style="text;html=1;strokeColor=none;fillColor=none;align=center;verticalAlign=middle;whiteSpace=wrap;rounded=0;" parent="1" vertex="1">
          <mxGeometry x="1740" y="240" width="20" height="20" as="geometry" />
        </mxCell>
        <mxCell id="_N8vf_obq35q-QhD7dWz-124" value="fin" style="ellipse;whiteSpace=wrap;html=1;" parent="1" vertex="1">
          <mxGeometry x="1513.5" y="385" width="50" height="30" as="geometry" />
        </mxCell>
        <mxCell id="_N8vf_obq35q-QhD7dWz-134" value="6" style="rounded=0;whiteSpace=wrap;html=1;" parent="1" vertex="1">
          <mxGeometry x="1920" y="40" width="30" height="20" as="geometry" />
        </mxCell>
        <mxCell id="_N8vf_obq35q-QhD7dWz-157" style="edgeStyle=orthogonalEdgeStyle;rounded=0;orthogonalLoop=1;jettySize=auto;html=1;exitX=0.5;exitY=1;exitDx=0;exitDy=0;entryX=0.5;entryY=0;entryDx=0;entryDy=0;" parent="1" source="_N8vf_obq35q-QhD7dWz-135" target="_N8vf_obq35q-QhD7dWz-137" edge="1">
          <mxGeometry relative="1" as="geometry" />
        </mxCell>
        <mxCell id="_N8vf_obq35q-QhD7dWz-135" value="inicio" style="ellipse;whiteSpace=wrap;html=1;" parent="1" vertex="1">
          <mxGeometry x="1970" y="40" width="70" height="40" as="geometry" />
        </mxCell>
        <mxCell id="_N8vf_obq35q-QhD7dWz-150" style="edgeStyle=orthogonalEdgeStyle;rounded=0;orthogonalLoop=1;jettySize=auto;html=1;exitX=0.5;exitY=1;exitDx=0;exitDy=0;entryX=0.5;entryY=0;entryDx=0;entryDy=0;" parent="1" source="_N8vf_obq35q-QhD7dWz-136" target="_N8vf_obq35q-QhD7dWz-141" edge="1">
          <mxGeometry relative="1" as="geometry" />
        </mxCell>
        <mxCell id="_N8vf_obq35q-QhD7dWz-136" value="inicio CalArea" style="ellipse;whiteSpace=wrap;html=1;" parent="1" vertex="1">
          <mxGeometry x="2148" y="85" width="90" height="40" as="geometry" />
        </mxCell>
        <mxCell id="_N8vf_obq35q-QhD7dWz-156" style="edgeStyle=orthogonalEdgeStyle;rounded=0;orthogonalLoop=1;jettySize=auto;html=1;exitX=0.5;exitY=1;exitDx=0;exitDy=0;entryX=0.5;entryY=0;entryDx=0;entryDy=0;" parent="1" source="_N8vf_obq35q-QhD7dWz-137" target="_N8vf_obq35q-QhD7dWz-138" edge="1">
          <mxGeometry relative="1" as="geometry" />
        </mxCell>
        <mxCell id="_N8vf_obq35q-QhD7dWz-137" value="apotema, Llado, nlados:int" style="rounded=0;whiteSpace=wrap;html=1;" parent="1" vertex="1">
          <mxGeometry x="1932.5" y="100" width="145" height="20" as="geometry" />
        </mxCell>
        <mxCell id="KTPkJaaehW4OnHOEHvmA-2" style="edgeStyle=orthogonalEdgeStyle;rounded=0;orthogonalLoop=1;jettySize=auto;html=1;exitX=0.5;exitY=1;exitDx=0;exitDy=0;entryX=0.5;entryY=0;entryDx=0;entryDy=0;" edge="1" parent="1" source="_N8vf_obq35q-QhD7dWz-138" target="_N8vf_obq35q-QhD7dWz-146">
          <mxGeometry relative="1" as="geometry" />
        </mxCell>
        <mxCell id="_N8vf_obq35q-QhD7dWz-138" value="&amp;nbsp;int re = CalArea(apotema, Llado, nlados)" style="rounded=0;whiteSpace=wrap;html=1;" parent="1" vertex="1">
          <mxGeometry x="1932.5" y="140" width="145" height="30" as="geometry" />
        </mxCell>
        <mxCell id="_N8vf_obq35q-QhD7dWz-143" style="edgeStyle=orthogonalEdgeStyle;rounded=0;orthogonalLoop=1;jettySize=auto;html=1;exitX=0.5;exitY=1;exitDx=0;exitDy=0;entryX=0.5;entryY=0;entryDx=0;entryDy=0;" parent="1" source="_N8vf_obq35q-QhD7dWz-141" target="_N8vf_obq35q-QhD7dWz-142" edge="1">
          <mxGeometry relative="1" as="geometry" />
        </mxCell>
        <mxCell id="_N8vf_obq35q-QhD7dWz-141" value="int p = Llado * nlados&lt;br&gt;int r = (apotema * p) / 2" style="rounded=0;whiteSpace=wrap;html=1;" parent="1" vertex="1">
          <mxGeometry x="2133" y="145" width="135" height="60" as="geometry" />
        </mxCell>
        <mxCell id="_N8vf_obq35q-QhD7dWz-145" style="edgeStyle=orthogonalEdgeStyle;rounded=0;orthogonalLoop=1;jettySize=auto;html=1;exitX=1;exitY=0.5;exitDx=0;exitDy=0;entryX=0;entryY=0.5;entryDx=0;entryDy=0;dashed=1;" parent="1" source="_N8vf_obq35q-QhD7dWz-142" target="_N8vf_obq35q-QhD7dWz-144" edge="1">
          <mxGeometry relative="1" as="geometry" />
        </mxCell>
        <mxCell id="_N8vf_obq35q-QhD7dWz-142" value="fin" style="ellipse;whiteSpace=wrap;html=1;" parent="1" vertex="1">
          <mxGeometry x="2168" y="230" width="50" height="30" as="geometry" />
        </mxCell>
        <mxCell id="_N8vf_obq35q-QhD7dWz-144" value="r Int" style="rounded=0;whiteSpace=wrap;html=1;dashed=1;dashPattern=8 8;" parent="1" vertex="1">
          <mxGeometry x="2278" y="232.5" width="80" height="25" as="geometry" />
        </mxCell>
        <mxCell id="_N8vf_obq35q-QhD7dWz-149" style="edgeStyle=orthogonalEdgeStyle;rounded=0;orthogonalLoop=1;jettySize=auto;html=1;exitX=1;exitY=0.75;exitDx=0;exitDy=0;entryX=0.5;entryY=0;entryDx=0;entryDy=0;" parent="1" source="_N8vf_obq35q-QhD7dWz-146" target="_N8vf_obq35q-QhD7dWz-147" edge="1">
          <mxGeometry relative="1" as="geometry">
            <Array as="points">
              <mxPoint x="2036" y="245" />
              <mxPoint x="2005" y="245" />
            </Array>
          </mxGeometry>
        </mxCell>
        <mxCell id="_N8vf_obq35q-QhD7dWz-146" value="re" style="shape=document;whiteSpace=wrap;html=1;boundedLbl=1;" parent="1" vertex="1">
          <mxGeometry x="1974" y="205" width="62" height="30" as="geometry" />
        </mxCell>
        <mxCell id="_N8vf_obq35q-QhD7dWz-147" value="fin" style="ellipse;whiteSpace=wrap;html=1;" parent="1" vertex="1">
          <mxGeometry x="1980" y="265" width="50" height="30" as="geometry" />
        </mxCell>
        <mxCell id="_N8vf_obq35q-QhD7dWz-152" style="edgeStyle=orthogonalEdgeStyle;rounded=0;orthogonalLoop=1;jettySize=auto;html=1;exitX=1;exitY=0.5;exitDx=0;exitDy=0;entryX=0.5;entryY=0;entryDx=0;entryDy=0;dashed=1;" parent="1" source="_N8vf_obq35q-QhD7dWz-151" target="_N8vf_obq35q-QhD7dWz-136" edge="1">
          <mxGeometry relative="1" as="geometry" />
        </mxCell>
        <mxCell id="_N8vf_obq35q-QhD7dWz-151" value="apotema, Llado, nlados:Int" style="rounded=0;whiteSpace=wrap;html=1;dashed=1;dashPattern=8 8;" parent="1" vertex="1">
          <mxGeometry x="2068" y="45" width="80" height="40" as="geometry" />
        </mxCell>
        <mxCell id="_N8vf_obq35q-QhD7dWz-155" value="7 y 8" style="rounded=0;whiteSpace=wrap;html=1;" parent="1" vertex="1">
          <mxGeometry x="2481" y="40" width="30" height="20" as="geometry" />
        </mxCell>
        <mxCell id="aBCAZQnPo4O7WEvCnO0R-20" style="edgeStyle=orthogonalEdgeStyle;rounded=0;orthogonalLoop=1;jettySize=auto;html=1;exitX=0.5;exitY=1;exitDx=0;exitDy=0;entryX=0.5;entryY=0;entryDx=0;entryDy=0;" parent="1" source="_N8vf_obq35q-QhD7dWz-158" target="aBCAZQnPo4O7WEvCnO0R-1" edge="1">
          <mxGeometry relative="1" as="geometry" />
        </mxCell>
        <mxCell id="_N8vf_obq35q-QhD7dWz-158" value="inicio" style="ellipse;whiteSpace=wrap;html=1;" parent="1" vertex="1">
          <mxGeometry x="2580" y="20" width="70" height="40" as="geometry" />
        </mxCell>
        <mxCell id="aBCAZQnPo4O7WEvCnO0R-19" style="edgeStyle=orthogonalEdgeStyle;rounded=0;orthogonalLoop=1;jettySize=auto;html=1;exitX=0.5;exitY=1;exitDx=0;exitDy=0;entryX=0.5;entryY=0;entryDx=0;entryDy=0;" parent="1" source="aBCAZQnPo4O7WEvCnO0R-1" target="aBCAZQnPo4O7WEvCnO0R-9" edge="1">
          <mxGeometry relative="1" as="geometry" />
        </mxCell>
        <mxCell id="aBCAZQnPo4O7WEvCnO0R-1" value="String : player1, player2&amp;nbsp;&lt;br&gt;victorias1&lt;br&gt;victorias2" style="rounded=0;whiteSpace=wrap;html=1;" parent="1" vertex="1">
          <mxGeometry x="2572.5" y="70" width="85" height="70" as="geometry" />
        </mxCell>
        <mxCell id="aBCAZQnPo4O7WEvCnO0R-5" style="edgeStyle=orthogonalEdgeStyle;rounded=0;orthogonalLoop=1;jettySize=auto;html=1;exitX=0.5;exitY=1;exitDx=0;exitDy=0;entryX=0.5;entryY=0;entryDx=0;entryDy=0;" parent="1" source="aBCAZQnPo4O7WEvCnO0R-2" target="aBCAZQnPo4O7WEvCnO0R-3" edge="1">
          <mxGeometry relative="1" as="geometry" />
        </mxCell>
        <mxCell id="aBCAZQnPo4O7WEvCnO0R-32" style="edgeStyle=orthogonalEdgeStyle;rounded=0;orthogonalLoop=1;jettySize=auto;html=1;exitX=1;exitY=0.5;exitDx=0;exitDy=0;entryX=0;entryY=0.5;entryDx=0;entryDy=0;" parent="1" source="aBCAZQnPo4O7WEvCnO0R-2" target="aBCAZQnPo4O7WEvCnO0R-22" edge="1">
          <mxGeometry relative="1" as="geometry" />
        </mxCell>
        <mxCell id="aBCAZQnPo4O7WEvCnO0R-2" value="player1 = piedra &amp;amp;&lt;br&gt;player2 = papel" style="rhombus;whiteSpace=wrap;html=1;" parent="1" vertex="1">
          <mxGeometry x="2547.5" y="315" width="135" height="95" as="geometry" />
        </mxCell>
        <mxCell id="aBCAZQnPo4O7WEvCnO0R-12" style="edgeStyle=orthogonalEdgeStyle;rounded=0;orthogonalLoop=1;jettySize=auto;html=1;exitX=0.5;exitY=1;exitDx=0;exitDy=0;entryX=0.5;entryY=0;entryDx=0;entryDy=0;" parent="1" source="aBCAZQnPo4O7WEvCnO0R-3" target="aBCAZQnPo4O7WEvCnO0R-6" edge="1">
          <mxGeometry relative="1" as="geometry" />
        </mxCell>
        <mxCell id="aBCAZQnPo4O7WEvCnO0R-31" style="edgeStyle=orthogonalEdgeStyle;rounded=0;orthogonalLoop=1;jettySize=auto;html=1;exitX=1;exitY=0.5;exitDx=0;exitDy=0;entryX=0;entryY=0.5;entryDx=0;entryDy=0;" parent="1" source="aBCAZQnPo4O7WEvCnO0R-3" target="aBCAZQnPo4O7WEvCnO0R-25" edge="1">
          <mxGeometry relative="1" as="geometry" />
        </mxCell>
        <mxCell id="aBCAZQnPo4O7WEvCnO0R-3" value="player2 = piedra &amp;amp;&lt;br style=&quot;border-color: var(--border-color);&quot;&gt;player1 = papel" style="rhombus;whiteSpace=wrap;html=1;" parent="1" vertex="1">
          <mxGeometry x="2547.5" y="427.5" width="135" height="95" as="geometry" />
        </mxCell>
        <mxCell id="aBCAZQnPo4O7WEvCnO0R-13" style="edgeStyle=orthogonalEdgeStyle;rounded=0;orthogonalLoop=1;jettySize=auto;html=1;exitX=0.5;exitY=1;exitDx=0;exitDy=0;entryX=0.5;entryY=0;entryDx=0;entryDy=0;" parent="1" source="aBCAZQnPo4O7WEvCnO0R-6" target="aBCAZQnPo4O7WEvCnO0R-7" edge="1">
          <mxGeometry relative="1" as="geometry" />
        </mxCell>
        <mxCell id="aBCAZQnPo4O7WEvCnO0R-30" style="edgeStyle=orthogonalEdgeStyle;rounded=0;orthogonalLoop=1;jettySize=auto;html=1;exitX=1;exitY=0.5;exitDx=0;exitDy=0;entryX=0;entryY=0.5;entryDx=0;entryDy=0;" parent="1" source="aBCAZQnPo4O7WEvCnO0R-6" target="aBCAZQnPo4O7WEvCnO0R-26" edge="1">
          <mxGeometry relative="1" as="geometry" />
        </mxCell>
        <mxCell id="aBCAZQnPo4O7WEvCnO0R-6" value="player1 = piedra&amp;amp;&lt;br style=&quot;border-color: var(--border-color);&quot;&gt;player2 = tijera" style="rhombus;whiteSpace=wrap;html=1;" parent="1" vertex="1">
          <mxGeometry x="2547.5" y="547.5" width="135" height="95" as="geometry" />
        </mxCell>
        <mxCell id="aBCAZQnPo4O7WEvCnO0R-14" style="edgeStyle=orthogonalEdgeStyle;rounded=0;orthogonalLoop=1;jettySize=auto;html=1;exitX=0.5;exitY=1;exitDx=0;exitDy=0;entryX=0.5;entryY=0;entryDx=0;entryDy=0;" parent="1" source="aBCAZQnPo4O7WEvCnO0R-7" target="aBCAZQnPo4O7WEvCnO0R-8" edge="1">
          <mxGeometry relative="1" as="geometry" />
        </mxCell>
        <mxCell id="aBCAZQnPo4O7WEvCnO0R-29" style="edgeStyle=orthogonalEdgeStyle;rounded=0;orthogonalLoop=1;jettySize=auto;html=1;exitX=1;exitY=0.5;exitDx=0;exitDy=0;entryX=0;entryY=0.5;entryDx=0;entryDy=0;" parent="1" source="aBCAZQnPo4O7WEvCnO0R-7" target="aBCAZQnPo4O7WEvCnO0R-23" edge="1">
          <mxGeometry relative="1" as="geometry" />
        </mxCell>
        <mxCell id="aBCAZQnPo4O7WEvCnO0R-7" value="player2 = piedra&amp;amp;&lt;br style=&quot;border-color: var(--border-color);&quot;&gt;player1 = tijera" style="rhombus;whiteSpace=wrap;html=1;" parent="1" vertex="1">
          <mxGeometry x="2547.5" y="670" width="135" height="95" as="geometry" />
        </mxCell>
        <mxCell id="aBCAZQnPo4O7WEvCnO0R-17" style="edgeStyle=orthogonalEdgeStyle;rounded=0;orthogonalLoop=1;jettySize=auto;html=1;exitX=0.5;exitY=1;exitDx=0;exitDy=0;entryX=0.5;entryY=0;entryDx=0;entryDy=0;" parent="1" source="aBCAZQnPo4O7WEvCnO0R-8" target="aBCAZQnPo4O7WEvCnO0R-16" edge="1">
          <mxGeometry relative="1" as="geometry" />
        </mxCell>
        <mxCell id="aBCAZQnPo4O7WEvCnO0R-28" style="edgeStyle=orthogonalEdgeStyle;rounded=0;orthogonalLoop=1;jettySize=auto;html=1;exitX=1;exitY=0.5;exitDx=0;exitDy=0;entryX=0;entryY=0.5;entryDx=0;entryDy=0;" parent="1" source="aBCAZQnPo4O7WEvCnO0R-8" target="aBCAZQnPo4O7WEvCnO0R-27" edge="1">
          <mxGeometry relative="1" as="geometry" />
        </mxCell>
        <mxCell id="aBCAZQnPo4O7WEvCnO0R-8" value="player1 = tijera&amp;amp;&lt;br style=&quot;border-color: var(--border-color);&quot;&gt;player2 = papel" style="rhombus;whiteSpace=wrap;html=1;" parent="1" vertex="1">
          <mxGeometry x="2547.5" y="790" width="135" height="95" as="geometry" />
        </mxCell>
        <mxCell id="aBCAZQnPo4O7WEvCnO0R-18" style="edgeStyle=orthogonalEdgeStyle;rounded=0;orthogonalLoop=1;jettySize=auto;html=1;exitX=0.5;exitY=1;exitDx=0;exitDy=0;entryX=0.5;entryY=0;entryDx=0;entryDy=0;" parent="1" source="aBCAZQnPo4O7WEvCnO0R-9" target="aBCAZQnPo4O7WEvCnO0R-10" edge="1">
          <mxGeometry relative="1" as="geometry" />
        </mxCell>
        <mxCell id="aBCAZQnPo4O7WEvCnO0R-9" value="leer player1, player2" style="shape=parallelogram;perimeter=parallelogramPerimeter;whiteSpace=wrap;html=1;fixedSize=1;" parent="1" vertex="1">
          <mxGeometry x="2532.5" y="160" width="165" height="37" as="geometry" />
        </mxCell>
        <mxCell id="aBCAZQnPo4O7WEvCnO0R-15" style="edgeStyle=orthogonalEdgeStyle;rounded=0;orthogonalLoop=1;jettySize=auto;html=1;exitX=0.5;exitY=1;exitDx=0;exitDy=0;entryX=0.5;entryY=0;entryDx=0;entryDy=0;" parent="1" source="aBCAZQnPo4O7WEvCnO0R-10" target="aBCAZQnPo4O7WEvCnO0R-2" edge="1">
          <mxGeometry relative="1" as="geometry" />
        </mxCell>
        <mxCell id="aBCAZQnPo4O7WEvCnO0R-21" style="edgeStyle=orthogonalEdgeStyle;rounded=0;orthogonalLoop=1;jettySize=auto;html=1;exitX=1;exitY=0.5;exitDx=0;exitDy=0;entryX=0;entryY=0.5;entryDx=0;entryDy=0;" parent="1" source="aBCAZQnPo4O7WEvCnO0R-10" target="aBCAZQnPo4O7WEvCnO0R-11" edge="1">
          <mxGeometry relative="1" as="geometry" />
        </mxCell>
        <mxCell id="aBCAZQnPo4O7WEvCnO0R-10" value="player1 == player2" style="rhombus;whiteSpace=wrap;html=1;" parent="1" vertex="1">
          <mxGeometry x="2556.5" y="215" width="117" height="80" as="geometry" />
        </mxCell>
        <mxCell id="aBCAZQnPo4O7WEvCnO0R-46" style="edgeStyle=orthogonalEdgeStyle;rounded=0;orthogonalLoop=1;jettySize=auto;html=1;exitX=1;exitY=0.5;exitDx=0;exitDy=0;" parent="1" source="aBCAZQnPo4O7WEvCnO0R-11" edge="1">
          <mxGeometry relative="1" as="geometry">
            <mxPoint x="2620" y="150" as="targetPoint" />
            <Array as="points">
              <mxPoint x="2833" y="255" />
              <mxPoint x="2833" y="150" />
            </Array>
          </mxGeometry>
        </mxCell>
        <mxCell id="aBCAZQnPo4O7WEvCnO0R-11" value="Empate" style="shape=document;whiteSpace=wrap;html=1;boundedLbl=1;" parent="1" vertex="1">
          <mxGeometry x="2720" y="227.5" width="92.5" height="55" as="geometry" />
        </mxCell>
        <mxCell id="aBCAZQnPo4O7WEvCnO0R-33" style="edgeStyle=orthogonalEdgeStyle;rounded=0;orthogonalLoop=1;jettySize=auto;html=1;exitX=1;exitY=0.5;exitDx=0;exitDy=0;entryX=0;entryY=0.5;entryDx=0;entryDy=0;" parent="1" source="aBCAZQnPo4O7WEvCnO0R-16" target="aBCAZQnPo4O7WEvCnO0R-24" edge="1">
          <mxGeometry relative="1" as="geometry" />
        </mxCell>
        <mxCell id="KTPkJaaehW4OnHOEHvmA-11" style="edgeStyle=orthogonalEdgeStyle;rounded=0;orthogonalLoop=1;jettySize=auto;html=1;exitX=0.5;exitY=1;exitDx=0;exitDy=0;entryX=0.5;entryY=0;entryDx=0;entryDy=0;" edge="1" parent="1" source="aBCAZQnPo4O7WEvCnO0R-16" target="KTPkJaaehW4OnHOEHvmA-3">
          <mxGeometry relative="1" as="geometry" />
        </mxCell>
        <mxCell id="aBCAZQnPo4O7WEvCnO0R-16" value="player2 = tijera&amp;amp;&lt;br style=&quot;border-color: var(--border-color);&quot;&gt;player1 = papel" style="rhombus;whiteSpace=wrap;html=1;" parent="1" vertex="1">
          <mxGeometry x="2547.5" y="910" width="135" height="95" as="geometry" />
        </mxCell>
        <mxCell id="KTPkJaaehW4OnHOEHvmA-10" style="edgeStyle=orthogonalEdgeStyle;rounded=0;orthogonalLoop=1;jettySize=auto;html=1;exitX=1;exitY=0.5;exitDx=0;exitDy=0;entryX=0;entryY=0.5;entryDx=0;entryDy=0;" edge="1" parent="1" source="aBCAZQnPo4O7WEvCnO0R-22" target="KTPkJaaehW4OnHOEHvmA-5">
          <mxGeometry relative="1" as="geometry" />
        </mxCell>
        <mxCell id="aBCAZQnPo4O7WEvCnO0R-22" value="Gana player2" style="shape=document;whiteSpace=wrap;html=1;boundedLbl=1;" parent="1" vertex="1">
          <mxGeometry x="2720" y="337.5" width="92.5" height="55" as="geometry" />
        </mxCell>
        <mxCell id="aBCAZQnPo4O7WEvCnO0R-42" style="edgeStyle=orthogonalEdgeStyle;rounded=0;orthogonalLoop=1;jettySize=auto;html=1;exitX=1;exitY=0.5;exitDx=0;exitDy=0;" parent="1" source="aBCAZQnPo4O7WEvCnO0R-23" edge="1">
          <mxGeometry relative="1" as="geometry">
            <mxPoint x="2830" y="718" as="targetPoint" />
          </mxGeometry>
        </mxCell>
        <mxCell id="aBCAZQnPo4O7WEvCnO0R-23" value="Gana player2" style="shape=document;whiteSpace=wrap;html=1;boundedLbl=1;" parent="1" vertex="1">
          <mxGeometry x="2720" y="690" width="92.5" height="55" as="geometry" />
        </mxCell>
        <mxCell id="aBCAZQnPo4O7WEvCnO0R-40" style="edgeStyle=orthogonalEdgeStyle;rounded=0;orthogonalLoop=1;jettySize=auto;html=1;exitX=1;exitY=0.5;exitDx=0;exitDy=0;" parent="1" source="aBCAZQnPo4O7WEvCnO0R-24" edge="1">
          <mxGeometry relative="1" as="geometry">
            <mxPoint x="2830" y="958" as="targetPoint" />
          </mxGeometry>
        </mxCell>
        <mxCell id="aBCAZQnPo4O7WEvCnO0R-24" value="Gana player2" style="shape=document;whiteSpace=wrap;html=1;boundedLbl=1;" parent="1" vertex="1">
          <mxGeometry x="2720" y="930" width="92.5" height="55" as="geometry" />
        </mxCell>
        <mxCell id="aBCAZQnPo4O7WEvCnO0R-37" style="edgeStyle=orthogonalEdgeStyle;rounded=0;orthogonalLoop=1;jettySize=auto;html=1;exitX=1;exitY=0.5;exitDx=0;exitDy=0;" parent="1" source="aBCAZQnPo4O7WEvCnO0R-25" edge="1">
          <mxGeometry relative="1" as="geometry">
            <mxPoint x="2830" y="475" as="targetPoint" />
          </mxGeometry>
        </mxCell>
        <mxCell id="aBCAZQnPo4O7WEvCnO0R-25" value="Gana player1" style="shape=document;whiteSpace=wrap;html=1;boundedLbl=1;" parent="1" vertex="1">
          <mxGeometry x="2720" y="447.5" width="92.5" height="55" as="geometry" />
        </mxCell>
        <mxCell id="aBCAZQnPo4O7WEvCnO0R-43" style="edgeStyle=orthogonalEdgeStyle;rounded=0;orthogonalLoop=1;jettySize=auto;html=1;exitX=1;exitY=0.5;exitDx=0;exitDy=0;" parent="1" source="aBCAZQnPo4O7WEvCnO0R-26" edge="1">
          <mxGeometry relative="1" as="geometry">
            <mxPoint x="2830" y="595" as="targetPoint" />
          </mxGeometry>
        </mxCell>
        <mxCell id="aBCAZQnPo4O7WEvCnO0R-26" value="Gana player1" style="shape=document;whiteSpace=wrap;html=1;boundedLbl=1;" parent="1" vertex="1">
          <mxGeometry x="2720" y="567.5" width="92.5" height="55" as="geometry" />
        </mxCell>
        <mxCell id="aBCAZQnPo4O7WEvCnO0R-41" style="edgeStyle=orthogonalEdgeStyle;rounded=0;orthogonalLoop=1;jettySize=auto;html=1;exitX=1;exitY=0.5;exitDx=0;exitDy=0;" parent="1" source="aBCAZQnPo4O7WEvCnO0R-27" edge="1">
          <mxGeometry relative="1" as="geometry">
            <mxPoint x="2830" y="838" as="targetPoint" />
          </mxGeometry>
        </mxCell>
        <mxCell id="aBCAZQnPo4O7WEvCnO0R-27" value="Gana player1" style="shape=document;whiteSpace=wrap;html=1;boundedLbl=1;" parent="1" vertex="1">
          <mxGeometry x="2720" y="810" width="92.5" height="55" as="geometry" />
        </mxCell>
        <mxCell id="KTPkJaaehW4OnHOEHvmA-13" style="edgeStyle=orthogonalEdgeStyle;rounded=0;orthogonalLoop=1;jettySize=auto;html=1;exitX=0.5;exitY=1;exitDx=0;exitDy=0;entryX=0.5;entryY=0;entryDx=0;entryDy=0;" edge="1" parent="1" source="KTPkJaaehW4OnHOEHvmA-3" target="KTPkJaaehW4OnHOEHvmA-12">
          <mxGeometry relative="1" as="geometry" />
        </mxCell>
        <mxCell id="KTPkJaaehW4OnHOEHvmA-21" style="edgeStyle=orthogonalEdgeStyle;rounded=0;orthogonalLoop=1;jettySize=auto;html=1;exitX=1;exitY=0.5;exitDx=0;exitDy=0;entryX=0;entryY=0.5;entryDx=0;entryDy=0;" edge="1" parent="1" source="KTPkJaaehW4OnHOEHvmA-3" target="KTPkJaaehW4OnHOEHvmA-20">
          <mxGeometry relative="1" as="geometry" />
        </mxCell>
        <mxCell id="KTPkJaaehW4OnHOEHvmA-3" value="victorias1 == 3" style="rhombus;whiteSpace=wrap;html=1;" vertex="1" parent="1">
          <mxGeometry x="2552.5" y="1040" width="125" height="80" as="geometry" />
        </mxCell>
        <mxCell id="KTPkJaaehW4OnHOEHvmA-15" style="edgeStyle=orthogonalEdgeStyle;rounded=0;orthogonalLoop=1;jettySize=auto;html=1;exitX=1;exitY=0.5;exitDx=0;exitDy=0;" edge="1" parent="1" source="KTPkJaaehW4OnHOEHvmA-4">
          <mxGeometry relative="1" as="geometry">
            <mxPoint x="2950" y="475" as="targetPoint" />
          </mxGeometry>
        </mxCell>
        <mxCell id="KTPkJaaehW4OnHOEHvmA-4" value="victoria1++" style="rounded=0;whiteSpace=wrap;html=1;" vertex="1" parent="1">
          <mxGeometry x="2830" y="452.5" width="100" height="45" as="geometry" />
        </mxCell>
        <mxCell id="KTPkJaaehW4OnHOEHvmA-14" style="edgeStyle=orthogonalEdgeStyle;rounded=0;orthogonalLoop=1;jettySize=auto;html=1;exitX=1;exitY=0.5;exitDx=0;exitDy=0;entryX=1;entryY=0;entryDx=0;entryDy=0;" edge="1" parent="1" source="KTPkJaaehW4OnHOEHvmA-5" target="KTPkJaaehW4OnHOEHvmA-3">
          <mxGeometry relative="1" as="geometry">
            <Array as="points">
              <mxPoint x="2950" y="365" />
              <mxPoint x="2950" y="1060" />
            </Array>
          </mxGeometry>
        </mxCell>
        <mxCell id="KTPkJaaehW4OnHOEHvmA-5" value="victoria2++" style="rounded=0;whiteSpace=wrap;html=1;" vertex="1" parent="1">
          <mxGeometry x="2830" y="342.5" width="100" height="45" as="geometry" />
        </mxCell>
        <mxCell id="KTPkJaaehW4OnHOEHvmA-17" style="edgeStyle=orthogonalEdgeStyle;rounded=0;orthogonalLoop=1;jettySize=auto;html=1;exitX=1;exitY=0.5;exitDx=0;exitDy=0;" edge="1" parent="1" source="KTPkJaaehW4OnHOEHvmA-6">
          <mxGeometry relative="1" as="geometry">
            <mxPoint x="2950" y="718" as="targetPoint" />
          </mxGeometry>
        </mxCell>
        <mxCell id="KTPkJaaehW4OnHOEHvmA-6" value="victoria2++" style="rounded=0;whiteSpace=wrap;html=1;" vertex="1" parent="1">
          <mxGeometry x="2830" y="695" width="100" height="45" as="geometry" />
        </mxCell>
        <mxCell id="KTPkJaaehW4OnHOEHvmA-16" style="edgeStyle=orthogonalEdgeStyle;rounded=0;orthogonalLoop=1;jettySize=auto;html=1;exitX=1;exitY=0.5;exitDx=0;exitDy=0;" edge="1" parent="1" source="KTPkJaaehW4OnHOEHvmA-7">
          <mxGeometry relative="1" as="geometry">
            <mxPoint x="2950" y="595" as="targetPoint" />
          </mxGeometry>
        </mxCell>
        <mxCell id="KTPkJaaehW4OnHOEHvmA-7" value="victoria1++" style="rounded=0;whiteSpace=wrap;html=1;" vertex="1" parent="1">
          <mxGeometry x="2830" y="572.5" width="100" height="45" as="geometry" />
        </mxCell>
        <mxCell id="KTPkJaaehW4OnHOEHvmA-18" style="edgeStyle=orthogonalEdgeStyle;rounded=0;orthogonalLoop=1;jettySize=auto;html=1;exitX=1;exitY=0.5;exitDx=0;exitDy=0;" edge="1" parent="1" source="KTPkJaaehW4OnHOEHvmA-8">
          <mxGeometry relative="1" as="geometry">
            <mxPoint x="2950" y="838" as="targetPoint" />
          </mxGeometry>
        </mxCell>
        <mxCell id="KTPkJaaehW4OnHOEHvmA-8" value="victoria1++" style="rounded=0;whiteSpace=wrap;html=1;" vertex="1" parent="1">
          <mxGeometry x="2830" y="815" width="100" height="45" as="geometry" />
        </mxCell>
        <mxCell id="KTPkJaaehW4OnHOEHvmA-19" style="edgeStyle=orthogonalEdgeStyle;rounded=0;orthogonalLoop=1;jettySize=auto;html=1;exitX=1;exitY=0.5;exitDx=0;exitDy=0;" edge="1" parent="1" source="KTPkJaaehW4OnHOEHvmA-9">
          <mxGeometry relative="1" as="geometry">
            <mxPoint x="2950" y="958" as="targetPoint" />
          </mxGeometry>
        </mxCell>
        <mxCell id="KTPkJaaehW4OnHOEHvmA-9" value="victoria2++" style="rounded=0;whiteSpace=wrap;html=1;" vertex="1" parent="1">
          <mxGeometry x="2830" y="935" width="100" height="45" as="geometry" />
        </mxCell>
        <mxCell id="KTPkJaaehW4OnHOEHvmA-23" style="edgeStyle=orthogonalEdgeStyle;rounded=0;orthogonalLoop=1;jettySize=auto;html=1;exitX=1;exitY=0.5;exitDx=0;exitDy=0;entryX=0;entryY=0.5;entryDx=0;entryDy=0;" edge="1" parent="1" source="KTPkJaaehW4OnHOEHvmA-12" target="KTPkJaaehW4OnHOEHvmA-22">
          <mxGeometry relative="1" as="geometry" />
        </mxCell>
        <mxCell id="KTPkJaaehW4OnHOEHvmA-25" style="edgeStyle=orthogonalEdgeStyle;rounded=0;orthogonalLoop=1;jettySize=auto;html=1;exitX=0.5;exitY=1;exitDx=0;exitDy=0;entryX=0.5;entryY=0;entryDx=0;entryDy=0;" edge="1" parent="1" source="KTPkJaaehW4OnHOEHvmA-12" target="KTPkJaaehW4OnHOEHvmA-24">
          <mxGeometry relative="1" as="geometry" />
        </mxCell>
        <mxCell id="KTPkJaaehW4OnHOEHvmA-12" value="victorias2 == 3" style="rhombus;whiteSpace=wrap;html=1;" vertex="1" parent="1">
          <mxGeometry x="2552.5" y="1140" width="125" height="80" as="geometry" />
        </mxCell>
        <mxCell id="KTPkJaaehW4OnHOEHvmA-26" style="edgeStyle=orthogonalEdgeStyle;rounded=0;orthogonalLoop=1;jettySize=auto;html=1;exitX=1;exitY=0.5;exitDx=0;exitDy=0;entryX=1;entryY=0.5;entryDx=0;entryDy=0;" edge="1" parent="1" source="KTPkJaaehW4OnHOEHvmA-20" target="KTPkJaaehW4OnHOEHvmA-24">
          <mxGeometry relative="1" as="geometry" />
        </mxCell>
        <mxCell id="KTPkJaaehW4OnHOEHvmA-20" value="player1" style="shape=document;whiteSpace=wrap;html=1;boundedLbl=1;" vertex="1" parent="1">
          <mxGeometry x="2970" y="1052.5" width="92.5" height="55" as="geometry" />
        </mxCell>
        <mxCell id="KTPkJaaehW4OnHOEHvmA-27" style="edgeStyle=orthogonalEdgeStyle;rounded=0;orthogonalLoop=1;jettySize=auto;html=1;exitX=1;exitY=0.5;exitDx=0;exitDy=0;" edge="1" parent="1" source="KTPkJaaehW4OnHOEHvmA-22">
          <mxGeometry relative="1" as="geometry">
            <mxPoint x="3080" y="1180" as="targetPoint" />
          </mxGeometry>
        </mxCell>
        <mxCell id="KTPkJaaehW4OnHOEHvmA-22" value="player1" style="shape=document;whiteSpace=wrap;html=1;boundedLbl=1;" vertex="1" parent="1">
          <mxGeometry x="2970" y="1152.5" width="92.5" height="55" as="geometry" />
        </mxCell>
        <mxCell id="KTPkJaaehW4OnHOEHvmA-24" value="fin" style="ellipse;whiteSpace=wrap;html=1;" vertex="1" parent="1">
          <mxGeometry x="2590" y="1240" width="50" height="30" as="geometry" />
        </mxCell>
      </root>
    </mxGraphModel>
  </diagram>
</mxfile>
